<svg xmlns="http://www.w3.org/2000/svg" xmlns:xlink="http://www.w3.org/1999/xlink" width="1200" zoomAndPan="magnify" viewBox="0 0 900 899.99999" height="1200" preserveAspectRatio="xMidYMid meet" version="1.0"><defs><clipPath id="aab4d0256c"><path d="M 115.574219 115.574219 L 784.574219 115.574219 L 784.574219 784.574219 L 115.574219 784.574219 Z M 115.574219 115.574219 " clip-rule="nonzero"/></clipPath></defs><g clip-path="url(#aab4d0256c)"><path fill="#161515" d="M 342.246094 557.730469 C 309.171875 585.253906 263.949219 609.878906 218.484375 593.875 C 153.34375 570.941406 120.132812 507.429688 115.5625 449.992188 C 120.132812 392.550781 153.34375 329.039062 218.484375 306.105469 C 263.949219 290.097656 309.171875 314.726562 342.246094 342.246094 C 314.726562 309.171875 290.097656 263.949219 306.105469 218.484375 C 329.035156 153.34375 392.550781 120.136719 449.988281 115.566406 C 507.429688 120.136719 570.941406 153.34375 593.871094 218.484375 C 609.878906 263.949219 585.25 309.171875 557.730469 342.246094 C 590.804688 314.726562 636.027344 290.097656 681.496094 306.105469 C 746.632812 329.039062 779.847656 392.550781 784.410156 449.992188 C 779.847656 507.429688 746.632812 570.941406 681.496094 593.875 C 636.027344 609.878906 590.804688 585.253906 557.730469 557.730469 C 585.25 590.804688 609.878906 636.03125 593.871094 681.496094 C 570.941406 746.632812 507.429688 779.847656 449.988281 784.414062 C 392.550781 779.847656 329.035156 746.632812 306.105469 681.496094 C 290.097656 636.03125 314.726562 590.804688 342.246094 557.730469 Z M 382.863281 382.863281 C 389.652344 390.917969 393.4375 396.175781 393.4375 396.175781 C 405.066406 412.152344 426.867188 448.851562 427.539062 449.992188 C 426.867188 451.128906 405.066406 487.832031 393.4375 503.800781 C 393.4375 503.800781 389.652344 509.066406 382.863281 517.117188 C 390.914062 510.328125 396.175781 506.542969 396.175781 506.542969 C 412.152344 494.914062 448.851562 473.113281 449.988281 472.4375 C 451.128906 473.113281 487.828125 494.914062 503.800781 506.542969 C 503.800781 506.542969 509.066406 510.328125 517.117188 517.117188 C 510.328125 509.066406 506.542969 503.800781 506.542969 503.800781 C 494.90625 487.832031 473.113281 451.128906 472.4375 449.992188 C 473.113281 448.851562 494.90625 412.152344 506.542969 396.175781 C 506.542969 396.175781 510.328125 390.917969 517.117188 382.863281 C 509.066406 389.652344 503.800781 393.4375 503.800781 393.4375 C 487.828125 405.070312 451.128906 426.867188 449.988281 427.546875 C 448.851562 426.867188 412.152344 405.070312 396.175781 393.4375 C 396.175781 393.4375 390.914062 389.652344 382.863281 382.863281 Z M 382.863281 382.863281 " fill-opacity="1" fill-rule="evenodd"/></g></svg>