<svg xmlns="http://www.w3.org/2000/svg" xmlns:xlink="http://www.w3.org/1999/xlink" width="2000" zoomAndPan="magnify" viewBox="0 0 1500 1499.999933" height="2000" preserveAspectRatio="xMidYMid meet" version="1.0"><defs><clipPath id="60c274f836"><path d="M 386.21875 618 L 898 618 L 898 1122 L 386.21875 1122 Z M 386.21875 618 " clip-rule="nonzero"/></clipPath><clipPath id="159872f5f2"><path d="M 768 294.101562 L 861 294.101562 L 861 630 L 768 630 Z M 768 294.101562 " clip-rule="nonzero"/></clipPath><clipPath id="212bd675ad"><path d="M 815 539 L 1170.71875 539 L 1170.71875 724 L 815 724 Z M 815 539 " clip-rule="nonzero"/></clipPath><clipPath id="a8d4c728de"><path d="M 1087 637 L 1170.71875 637 L 1170.71875 721 L 1087 721 Z M 1087 637 " clip-rule="nonzero"/></clipPath></defs><g clip-path="url(#60c274f836)"><path fill="#ffffff" d="M 687.847656 660.082031 C 612.457031 607.34375 581.171875 617.011719 571.21875 623.609375 C 568.882812 625.136719 566.847656 626.988281 565.109375 629.167969 C 563.375 631.351562 562.023438 633.75 561.0625 636.367188 C 560.972656 636.558594 560.875 636.738281 560.792969 636.933594 C 560.539062 637.558594 546.261719 672.375 526.070312 722.578125 C 526.042969 722.644531 526.019531 722.710938 525.992188 722.773438 C 509.53125 763.707031 489.152344 814.835938 469.230469 866.011719 C 443.125 933.089844 422.894531 987.144531 409.105469 1026.675781 C 400.859375 1050.316406 394.828125 1069.039062 391.175781 1082.320312 C 385.171875 1104.175781 385.074219 1112.136719 390.742188 1117.800781 C 393.484375 1120.542969 396.78125 1121.929688 401.960938 1121.929688 C 407.515625 1121.929688 415.234375 1120.335938 426.75 1117.113281 C 440.3125 1113.324219 459.449219 1107.082031 483.628906 1098.5625 C 512.789062 1088.289062 549.730469 1074.558594 593.792969 1057.617188 C 595.726562 1057.382812 597.492188 1056.703125 599.089844 1055.582031 C 614.566406 1049.621094 630.898438 1043.273438 648.078125 1036.539062 C 653.355469 1034.472656 658.628906 1032.402344 663.902344 1030.328125 L 663.976562 1030.296875 C 775.242188 986.503906 881.566406 942.675781 882.675781 942.21875 C 884.808594 941.339844 886.527344 939.949219 887.835938 938.050781 C 888.253906 937.746094 888.675781 937.445312 889.074219 937.109375 C 906.429688 922.480469 897.089844 891.792969 858.785156 837.605469 C 806.523438 763.675781 745.816406 700.628906 687.847656 660.082031 Z M 662.835938 1005.527344 C 574.246094 907.113281 551.734375 751.449219 548.875 728.753906 C 556.511719 709.769531 563.265625 693.085938 568.675781 679.753906 C 570.601562 683.527344 572.855469 687.519531 575.492188 691.765625 C 606.164062 740.511719 641.703125 785.398438 682.109375 826.433594 C 699.265625 843.320312 717.363281 859.125 736.410156 873.84375 C 755.457031 888.5625 775.3125 902.09375 795.980469 914.4375 C 809.3125 922.46875 823.175781 929.4375 837.574219 935.339844 C 798.328125 951.359375 731.960938 978.269531 662.835938 1005.527344 Z M 595.101562 1031.976562 C 517.015625 949.824219 507.175781 850.460938 506.148438 836.0625 C 515.03125 813.488281 523.785156 791.4375 532.019531 770.808594 C 535.535156 788.585938 540.679688 810.859375 548.050781 835.578125 C 563.386719 887.007812 591.476562 958.132812 639.648438 1014.644531 C 623.773438 1020.863281 608.925781 1026.640625 595.101562 1031.976562 Z M 411.515625 1096.964844 C 415.996094 1077.703125 432.730469 1024.703125 489.085938 879.691406 C 498.164062 920.707031 519.84375 983.609375 571.511719 1041.039062 C 469.199219 1080.140625 428.007812 1093.070312 411.515625 1096.964844 Z M 873.773438 919.207031 C 871.675781 919.839844 855.832031 922.796875 805.851562 893.019531 C 766.878906 869.492188 731.160156 841.765625 698.699219 809.84375 C 659.554688 770.089844 625.128906 726.601562 595.417969 679.382812 C 580.894531 656.019531 581.582031 644.890625 584.191406 643.160156 C 586.507812 641.976562 588.96875 641.476562 591.566406 641.664062 C 598.839844 641.964844 605.894531 643.378906 612.722656 645.910156 C 630.308594 651.835938 651.636719 663.382812 674.398438 679.304688 C 730.207031 718.34375 788.886719 779.371094 839.625 851.148438 C 875.824219 902.355469 874.300781 917.074219 873.773438 919.207031 Z M 873.773438 919.207031 " fill-opacity="1" fill-rule="nonzero"/></g><g clip-path="url(#159872f5f2)"><path fill="#ffffff" d="M 773.789062 627.761719 C 774.433594 628.179688 775.117188 628.53125 775.832031 628.816406 C 776.546875 629.101562 777.285156 629.3125 778.042969 629.449219 C 778.800781 629.589844 779.5625 629.652344 780.332031 629.644531 C 781.105469 629.632812 781.867188 629.546875 782.617188 629.382812 C 783.371094 629.222656 784.101562 628.988281 784.808594 628.683594 C 785.515625 628.378906 786.1875 628.007812 786.820312 627.570312 C 787.457031 627.132812 788.039062 626.636719 788.578125 626.082031 C 789.113281 625.53125 789.589844 624.929688 790.007812 624.285156 C 846.429688 537.085938 859.625 454.457031 860.761719 400.496094 C 861.996094 341.695312 849.824219 303.769531 849.308594 302.183594 C 849.070312 301.453125 848.761719 300.75 848.382812 300.078125 C 848.003906 299.40625 847.566406 298.78125 847.0625 298.195312 C 846.5625 297.609375 846.007812 297.082031 845.402344 296.605469 C 844.796875 296.128906 844.152344 295.71875 843.464844 295.367188 C 842.777344 295.019531 842.0625 294.742188 841.320312 294.535156 C 840.578125 294.328125 839.824219 294.195312 839.054688 294.136719 C 838.289062 294.074219 837.519531 294.09375 836.757812 294.183594 C 835.992188 294.277344 835.242188 294.441406 834.511719 294.683594 C 833.78125 294.921875 833.078125 295.230469 832.40625 295.609375 C 831.734375 295.984375 831.105469 296.425781 830.523438 296.925781 C 829.9375 297.425781 829.40625 297.980469 828.929688 298.585938 C 828.457031 299.191406 828.042969 299.839844 827.695312 300.527344 C 827.347656 301.214844 827.070312 301.925781 826.863281 302.667969 C 826.652344 303.410156 826.519531 304.167969 826.460938 304.933594 C 826.402344 305.703125 826.417969 306.46875 826.511719 307.234375 C 826.601562 307.996094 826.769531 308.746094 827.007812 309.480469 C 827.476562 310.902344 872.417969 453.738281 770.3125 611.539062 C 769.894531 612.1875 769.542969 612.867188 769.257812 613.582031 C 768.972656 614.296875 768.761719 615.035156 768.625 615.792969 C 768.484375 616.550781 768.421875 617.316406 768.429688 618.085938 C 768.441406 618.855469 768.53125 619.617188 768.691406 620.371094 C 768.851562 621.121094 769.085938 621.851562 769.390625 622.558594 C 769.695312 623.265625 770.066406 623.9375 770.503906 624.570312 C 770.941406 625.207031 771.4375 625.792969 771.988281 626.328125 C 772.542969 626.863281 773.140625 627.34375 773.789062 627.761719 Z M 773.789062 627.761719 " fill-opacity="1" fill-rule="nonzero"/></g><path fill="#ffffff" d="M 670.886719 475.046875 C 681.621094 511.59375 678.925781 551.273438 662.882812 592.988281 C 662.609375 593.707031 662.402344 594.445312 662.273438 595.203125 C 662.140625 595.964844 662.085938 596.730469 662.105469 597.5 C 662.125 598.269531 662.21875 599.03125 662.386719 599.78125 C 662.554688 600.535156 662.796875 601.261719 663.109375 601.964844 C 663.421875 602.667969 663.800781 603.335938 664.246094 603.964844 C 664.6875 604.597656 665.191406 605.175781 665.75 605.707031 C 666.308594 606.238281 666.914062 606.710938 667.5625 607.121094 C 668.214844 607.53125 668.902344 607.875 669.621094 608.152344 C 670.339844 608.429688 671.078125 608.632812 671.835938 608.765625 C 672.597656 608.894531 673.363281 608.949219 674.132812 608.929688 C 674.902344 608.910156 675.664062 608.816406 676.414062 608.648438 C 677.167969 608.476562 677.894531 608.234375 678.597656 607.921875 C 679.300781 607.609375 679.96875 607.230469 680.597656 606.785156 C 681.226562 606.339844 681.808594 605.839844 682.335938 605.28125 C 682.867188 604.722656 683.339844 604.117188 683.75 603.464844 C 684.160156 602.8125 684.503906 602.128906 684.78125 601.410156 C 728.246094 488.402344 669.984375 419.742188 667.484375 416.875 C 666.976562 416.296875 666.417969 415.777344 665.808594 415.308594 C 665.199219 414.839844 664.550781 414.433594 663.863281 414.09375 C 663.175781 413.753906 662.460938 413.484375 661.71875 413.28125 C 660.976562 413.082031 660.222656 412.957031 659.457031 412.902344 C 658.691406 412.851562 657.925781 412.875 657.164062 412.972656 C 656.402344 413.070312 655.65625 413.242188 654.929688 413.484375 C 654.199219 413.730469 653.503906 414.042969 652.835938 414.425781 C 652.167969 414.804688 651.546875 415.25 650.964844 415.753906 C 650.386719 416.257812 649.859375 416.8125 649.390625 417.417969 C 648.917969 418.023438 648.511719 418.671875 648.167969 419.359375 C 647.824219 420.046875 647.550781 420.761719 647.347656 421.5 C 647.144531 422.242188 647.015625 422.996094 646.960938 423.761719 C 646.902344 424.527344 646.921875 425.292969 647.019531 426.054688 C 647.113281 426.816406 647.28125 427.5625 647.523438 428.289062 C 647.761719 429.019531 648.074219 429.71875 648.453125 430.386719 C 648.828125 431.054688 649.269531 431.679688 649.769531 432.261719 C 649.902344 432.414062 662.863281 447.734375 670.886719 475.046875 Z M 670.886719 475.046875 " fill-opacity="1" fill-rule="nonzero"/><g clip-path="url(#212bd675ad)"><path fill="#ffffff" d="M 1166.34375 562.21875 C 1164.980469 560.996094 1132.449219 532.390625 1094.820312 541.757812 C 1067.347656 548.597656 1045.585938 573.320312 1030.140625 615.238281 C 1017.394531 649.835938 1004.394531 668.464844 990.398438 672.191406 C 977.875 675.53125 960.847656 667.707031 936.832031 647.585938 C 923.507812 636.421875 908.242188 632.128906 892.683594 635.171875 C 874.472656 638.730469 856.050781 652.011719 837.929688 674.640625 C 829.96875 684.597656 822.90625 695.15625 816.746094 706.320312 C 816.386719 707 816.09375 707.707031 815.871094 708.445312 C 815.652344 709.183594 815.503906 709.9375 815.429688 710.703125 C 815.359375 711.46875 815.359375 712.238281 815.4375 713.003906 C 815.515625 713.769531 815.667969 714.519531 815.894531 715.257812 C 816.121094 715.992188 816.417969 716.699219 816.78125 717.378906 C 817.148438 718.054688 817.574219 718.691406 818.066406 719.285156 C 818.554688 719.878906 819.101562 720.421875 819.695312 720.90625 C 820.292969 721.394531 820.933594 721.816406 821.613281 722.179688 C 822.292969 722.539062 823.003906 722.832031 823.738281 723.050781 C 824.476562 723.273438 825.230469 723.421875 825.996094 723.492188 C 826.761719 723.566406 827.53125 723.5625 828.296875 723.484375 C 829.0625 723.40625 829.8125 723.253906 830.550781 723.03125 C 831.285156 722.804688 831.992188 722.507812 832.671875 722.144531 C 833.351562 721.777344 833.984375 721.351562 834.578125 720.859375 C 835.171875 720.367188 835.714844 719.824219 836.199219 719.226562 C 836.6875 718.632812 837.109375 717.992188 837.472656 717.3125 C 845.308594 702.578125 871.316406 663.234375 897.207031 658.191406 C 905.8125 656.519531 913.84375 658.929688 921.761719 665.566406 C 939.441406 680.378906 961.832031 696.394531 984.601562 696.394531 C 988.613281 696.402344 992.558594 695.890625 996.433594 694.863281 C 1018.957031 688.867188 1036.144531 666.8125 1052.15625 623.347656 C 1064.722656 589.238281 1080.941406 569.457031 1100.363281 564.554688 C 1125.871094 558.117188 1150.484375 579.511719 1150.703125 579.703125 C 1151.277344 580.21875 1151.894531 580.667969 1152.558594 581.0625 C 1153.222656 581.453125 1153.914062 581.777344 1154.644531 582.03125 C 1155.371094 582.285156 1156.113281 582.46875 1156.878906 582.574219 C 1157.640625 582.683594 1158.40625 582.714844 1159.175781 582.671875 C 1159.945312 582.632812 1160.703125 582.515625 1161.445312 582.320312 C 1162.191406 582.128906 1162.914062 581.867188 1163.605469 581.53125 C 1164.300781 581.199219 1164.957031 580.800781 1165.570312 580.339844 C 1166.1875 579.875 1166.753906 579.355469 1167.265625 578.78125 C 1167.78125 578.210938 1168.230469 577.589844 1168.625 576.925781 C 1169.015625 576.265625 1169.339844 575.570312 1169.59375 574.84375 C 1169.847656 574.113281 1170.03125 573.371094 1170.136719 572.609375 C 1170.246094 571.84375 1170.277344 571.078125 1170.234375 570.308594 C 1170.195312 569.542969 1170.074219 568.785156 1169.882812 568.039062 C 1169.691406 567.292969 1169.429688 566.570312 1169.09375 565.878906 C 1168.761719 565.183594 1168.363281 564.527344 1167.902344 563.914062 C 1167.4375 563.296875 1166.917969 562.734375 1166.34375 562.21875 Z M 1166.34375 562.21875 " fill-opacity="1" fill-rule="nonzero"/></g><path fill="#ffffff" d="M 1149.636719 786.78125 C 1148.25 786.136719 1115.09375 771.015625 1067.308594 767.09375 C 1003.792969 761.878906 944.503906 779.199219 895.84375 817.179688 C 895.234375 817.652344 894.679688 818.179688 894.175781 818.765625 C 893.671875 819.347656 893.230469 819.972656 892.851562 820.644531 C 892.472656 821.3125 892.164062 822.015625 891.921875 822.746094 C 891.679688 823.476562 891.511719 824.226562 891.417969 824.988281 C 891.324219 825.753906 891.304688 826.519531 891.359375 827.289062 C 891.417969 828.058594 891.550781 828.8125 891.753906 829.554688 C 891.960938 830.296875 892.234375 831.011719 892.582031 831.699219 C 892.929688 832.386719 893.339844 833.035156 893.8125 833.644531 C 894.285156 834.25 894.816406 834.804688 895.398438 835.308594 C 895.980469 835.8125 896.609375 836.253906 897.277344 836.632812 C 897.949219 837.011719 898.648438 837.324219 899.382812 837.5625 C 900.113281 837.804688 900.859375 837.972656 901.625 838.066406 C 902.390625 838.160156 903.15625 838.179688 903.925781 838.125 C 904.691406 838.066406 905.449219 837.9375 906.191406 837.730469 C 906.933594 837.523438 907.648438 837.25 908.335938 836.902344 C 909.023438 836.554688 909.671875 836.144531 910.277344 835.671875 C 954.613281 801.070312 1006.515625 785.84375 1064.546875 790.410156 C 1108.289062 793.851562 1139.34375 807.871094 1139.804688 808.078125 C 1140.503906 808.402344 1141.226562 808.652344 1141.976562 808.828125 C 1142.722656 809.007812 1143.480469 809.113281 1144.25 809.140625 C 1145.019531 809.171875 1145.785156 809.125 1146.542969 809.003906 C 1147.304688 808.886719 1148.042969 808.691406 1148.765625 808.425781 C 1149.488281 808.160156 1150.175781 807.824219 1150.832031 807.421875 C 1151.488281 807.019531 1152.097656 806.558594 1152.664062 806.035156 C 1153.230469 805.511719 1153.738281 804.941406 1154.191406 804.320312 C 1154.640625 803.695312 1155.03125 803.035156 1155.351562 802.335938 C 1155.675781 801.640625 1155.925781 800.917969 1156.105469 800.167969 C 1156.285156 799.421875 1156.390625 798.660156 1156.421875 797.894531 C 1156.453125 797.125 1156.410156 796.359375 1156.289062 795.601562 C 1156.171875 794.839844 1155.980469 794.097656 1155.714844 793.375 C 1155.449219 792.65625 1155.113281 791.964844 1154.714844 791.308594 C 1154.3125 790.652344 1153.851562 790.039062 1153.332031 789.472656 C 1152.808594 788.910156 1152.238281 788.398438 1151.617188 787.945312 C 1150.996094 787.492188 1150.335938 787.101562 1149.636719 786.78125 Z M 1149.636719 786.78125 " fill-opacity="1" fill-rule="nonzero"/><path fill="#ffffff" d="M 960.523438 530.976562 C 960.660156 530.976562 960.796875 530.972656 960.933594 530.96875 C 975.867188 530.453125 1004.5625 519.945312 1006.257812 483.871094 C 1006.996094 468.195312 1008.410156 460.398438 1011.292969 456.050781 C 1014.070312 451.871094 1019.527344 448.710938 1031.320312 442.5 C 1032.003906 442.140625 1032.648438 441.71875 1033.246094 441.234375 C 1033.847656 440.75 1034.394531 440.210938 1034.890625 439.621094 C 1035.382812 439.027344 1035.816406 438.394531 1036.183594 437.714844 C 1036.554688 437.039062 1036.851562 436.332031 1037.082031 435.59375 C 1037.3125 434.855469 1037.46875 434.105469 1037.546875 433.335938 C 1037.628906 432.570312 1037.636719 431.800781 1037.566406 431.035156 C 1037.492188 430.265625 1037.347656 429.511719 1037.128906 428.773438 C 1036.910156 428.03125 1036.621094 427.320312 1036.261719 426.636719 C 1035.902344 425.957031 1035.480469 425.316406 1034.992188 424.714844 C 1034.507812 424.117188 1033.96875 423.570312 1033.375 423.078125 C 1032.78125 422.585938 1032.144531 422.15625 1031.464844 421.789062 C 1030.785156 421.421875 1030.078125 421.121094 1029.339844 420.894531 C 1028.605469 420.667969 1027.851562 420.515625 1027.082031 420.4375 C 1026.316406 420.355469 1025.546875 420.355469 1024.78125 420.425781 C 1024.011719 420.5 1023.257812 420.644531 1022.519531 420.867188 C 1021.78125 421.089844 1021.070312 421.378906 1020.386719 421.742188 C 991.554688 436.929688 984.632812 444.378906 982.824219 482.769531 C 981.769531 505.175781 963.691406 507.324219 960.03125 507.527344 C 959.269531 507.558594 958.523438 507.664062 957.785156 507.839844 C 957.046875 508.019531 956.332031 508.265625 955.640625 508.582031 C 954.949219 508.898438 954.296875 509.277344 953.679688 509.722656 C 953.0625 510.164062 952.496094 510.664062 951.976562 511.21875 C 951.457031 511.773438 950.992188 512.371094 950.589844 513.015625 C 950.1875 513.660156 949.847656 514.335938 949.578125 515.042969 C 949.304688 515.753906 949.105469 516.480469 948.972656 517.230469 C 948.84375 517.980469 948.785156 518.730469 948.800781 519.492188 C 948.816406 520.25 948.90625 521.003906 949.070312 521.746094 C 949.230469 522.484375 949.460938 523.207031 949.761719 523.902344 C 950.066406 524.601562 950.429688 525.261719 950.859375 525.886719 C 951.292969 526.515625 951.777344 527.09375 952.320312 527.625 C 952.863281 528.15625 953.449219 528.628906 954.085938 529.046875 C 954.71875 529.464844 955.390625 529.816406 956.09375 530.105469 C 956.796875 530.390625 957.519531 530.609375 958.265625 530.753906 C 959.011719 530.902344 959.761719 530.976562 960.523438 530.976562 Z M 960.523438 530.976562 " fill-opacity="1" fill-rule="nonzero"/><path fill="#ffffff" d="M 1062.609375 911.574219 C 1033.882812 896.1875 1023.835938 894.625 991.011719 914.621094 C 971.855469 926.289062 959.957031 912.519531 957.738281 909.59375 C 957.28125 908.976562 956.769531 908.410156 956.199219 907.894531 C 955.632812 907.378906 955.019531 906.921875 954.359375 906.523438 C 953.703125 906.128906 953.011719 905.800781 952.289062 905.539062 C 951.566406 905.277344 950.828125 905.089844 950.066406 904.976562 C 949.308594 904.859375 948.542969 904.820312 947.777344 904.855469 C 947.011719 904.890625 946.253906 905 945.507812 905.183594 C 944.761719 905.367188 944.039062 905.621094 943.34375 905.945312 C 942.648438 906.269531 941.992188 906.660156 941.371094 907.113281 C 940.753906 907.566406 940.183594 908.078125 939.664062 908.644531 C 939.144531 909.210938 938.6875 909.820312 938.285156 910.476562 C 937.886719 911.132812 937.554688 911.824219 937.292969 912.542969 C 937.027344 913.265625 936.835938 914.003906 936.71875 914.765625 C 936.601562 915.523438 936.558594 916.285156 936.589844 917.054688 C 936.621094 917.820312 936.726562 918.578125 936.90625 919.324219 C 937.085938 920.070312 937.335938 920.792969 937.660156 921.492188 C 937.980469 922.1875 938.367188 922.847656 938.820312 923.46875 C 944.859375 931.773438 958.441406 942.820312 976.363281 942.820312 C 981.132812 942.738281 985.796875 942 990.359375 940.613281 C 994.921875 939.226562 999.207031 937.238281 1003.21875 934.65625 C 1016.617188 926.492188 1023.875 923.292969 1029.089844 923.25 C 1034.101562 923.175781 1039.78125 925.964844 1051.53125 932.257812 C 1052.210938 932.617188 1052.917969 932.910156 1053.652344 933.132812 C 1054.390625 933.355469 1055.140625 933.507812 1055.90625 933.582031 C 1056.671875 933.65625 1057.4375 933.65625 1058.203125 933.582031 C 1058.96875 933.503906 1059.722656 933.355469 1060.457031 933.132812 C 1061.195312 932.910156 1061.902344 932.617188 1062.578125 932.253906 C 1063.257812 931.890625 1063.894531 931.464844 1064.492188 930.980469 C 1065.085938 930.492188 1065.628906 929.949219 1066.117188 929.355469 C 1066.605469 928.761719 1067.03125 928.125 1067.394531 927.445312 C 1067.757812 926.769531 1068.050781 926.058594 1068.273438 925.324219 C 1068.5 924.589844 1068.648438 923.835938 1068.726562 923.070312 C 1068.800781 922.304688 1068.804688 921.539062 1068.730469 920.773438 C 1068.65625 920.007812 1068.507812 919.257812 1068.285156 918.519531 C 1068.0625 917.785156 1067.769531 917.074219 1067.410156 916.398438 C 1067.046875 915.71875 1066.625 915.078125 1066.136719 914.484375 C 1065.648438 913.886719 1065.109375 913.34375 1064.515625 912.855469 C 1063.921875 912.367188 1063.285156 911.941406 1062.609375 911.574219 Z M 1062.609375 911.574219 " fill-opacity="1" fill-rule="nonzero"/><path fill="#ffffff" d="M 546.769531 555.5 C 550.5 557.261719 554.371094 558.605469 558.386719 559.535156 C 562.402344 560.464844 566.472656 560.957031 570.59375 561.007812 C 574.648438 561.058594 578.628906 560.527344 582.53125 559.421875 C 586.433594 558.320312 590.097656 556.683594 593.527344 554.515625 C 594.964844 553.570312 596.339844 552.535156 597.652344 551.417969 C 598.960938 550.296875 600.195312 549.101562 601.355469 547.824219 C 602.511719 546.550781 603.585938 545.210938 604.578125 543.800781 C 605.570312 542.390625 606.46875 540.925781 607.273438 539.402344 C 608.078125 537.878906 608.789062 536.3125 609.398438 534.699219 C 610.007812 533.089844 610.511719 531.445312 610.917969 529.769531 C 611.320312 528.097656 611.617188 526.402344 611.804688 524.691406 C 611.996094 522.976562 612.078125 521.261719 612.054688 519.539062 C 612.054688 495.097656 594.984375 478.03125 570.546875 478.03125 C 568.542969 478.03125 566.550781 478.175781 564.570312 478.464844 C 562.589844 478.753906 560.636719 479.183594 558.71875 479.753906 C 556.796875 480.328125 554.929688 481.03125 553.113281 481.875 C 551.292969 482.714844 549.546875 483.683594 547.871094 484.777344 C 546.191406 485.871094 544.601562 487.082031 543.097656 488.40625 C 541.597656 489.726562 540.195312 491.152344 538.898438 492.679688 C 537.605469 494.207031 536.421875 495.820312 535.359375 497.515625 C 534.296875 499.214844 533.359375 500.976562 532.554688 502.8125 C 525.382812 519.085938 529.285156 537.75 542.992188 552.746094 C 544.066406 553.917969 545.324219 554.835938 546.769531 555.5 Z M 554.023438 512.273438 C 554.375 511.476562 554.78125 510.707031 555.242188 509.96875 C 555.707031 509.230469 556.21875 508.53125 556.78125 507.867188 C 557.347656 507.203125 557.957031 506.582031 558.609375 506.003906 C 559.261719 505.429688 559.953125 504.902344 560.683594 504.429688 C 561.414062 503.953125 562.171875 503.53125 562.964844 503.164062 C 563.753906 502.800781 564.566406 502.492188 565.402344 502.242188 C 566.238281 501.996094 567.085938 501.808594 567.949219 501.683594 C 568.808594 501.554688 569.675781 501.492188 570.546875 501.492188 C 586.832031 501.492188 588.59375 514.113281 588.59375 519.539062 C 588.648438 521.03125 588.515625 522.511719 588.195312 523.972656 C 587.875 525.433594 587.375 526.828125 586.699219 528.164062 C 586.019531 529.496094 585.183594 530.722656 584.195312 531.84375 C 583.203125 532.964844 582.085938 533.941406 580.847656 534.777344 C 575.171875 538.421875 567.394531 538.523438 558.753906 535.113281 C 552.644531 527.550781 550.914062 519.328125 554.023438 512.273438 Z M 554.023438 512.273438 " fill-opacity="1" fill-rule="nonzero"/><g clip-path="url(#a8d4c728de)"><path fill="#ffffff" d="M 1128.589844 637.234375 C 1126.585938 637.234375 1124.59375 637.378906 1122.613281 637.667969 C 1120.632812 637.957031 1118.679688 638.386719 1116.761719 638.957031 C 1114.839844 639.527344 1112.972656 640.234375 1111.15625 641.074219 C 1109.335938 641.917969 1107.589844 642.882812 1105.914062 643.980469 C 1104.234375 645.074219 1102.644531 646.28125 1101.140625 647.605469 C 1099.640625 648.929688 1098.238281 650.355469 1096.941406 651.882812 C 1095.648438 653.410156 1094.464844 655.019531 1093.402344 656.71875 C 1092.339844 658.414062 1091.40625 660.179688 1090.597656 662.011719 C 1083.425781 678.285156 1087.328125 696.953125 1101.035156 711.945312 C 1102.109375 713.121094 1103.367188 714.039062 1104.8125 714.699219 C 1108.542969 716.460938 1112.414062 717.808594 1116.429688 718.734375 C 1120.445312 719.664062 1124.515625 720.15625 1128.636719 720.210938 C 1132.691406 720.257812 1136.671875 719.730469 1140.574219 718.625 C 1144.476562 717.519531 1148.140625 715.882812 1151.570312 713.71875 C 1153.007812 712.769531 1154.382812 711.738281 1155.695312 710.617188 C 1157.003906 709.5 1158.238281 708.300781 1159.398438 707.027344 C 1160.554688 705.753906 1161.628906 704.410156 1162.621094 703 C 1163.613281 701.589844 1164.511719 700.125 1165.316406 698.601562 C 1166.125 697.082031 1166.832031 695.511719 1167.441406 693.902344 C 1168.050781 692.289062 1168.554688 690.648438 1168.960938 688.972656 C 1169.363281 687.296875 1169.660156 685.605469 1169.847656 683.890625 C 1170.039062 682.179688 1170.121094 680.460938 1170.097656 678.738281 C 1170.097656 654.300781 1153.027344 637.234375 1128.589844 637.234375 Z M 1138.890625 693.976562 C 1133.214844 697.625 1125.4375 697.726562 1116.796875 694.3125 C 1110.691406 686.75 1108.957031 678.527344 1112.066406 671.472656 C 1112.417969 670.675781 1112.824219 669.910156 1113.285156 669.171875 C 1113.75 668.433594 1114.261719 667.730469 1114.824219 667.066406 C 1115.390625 666.402344 1116 665.78125 1116.652344 665.207031 C 1117.304688 664.632812 1117.996094 664.105469 1118.726562 663.628906 C 1119.457031 663.152344 1120.214844 662.734375 1121.007812 662.367188 C 1121.796875 662 1122.609375 661.691406 1123.445312 661.445312 C 1124.28125 661.195312 1125.128906 661.007812 1125.992188 660.882812 C 1126.851562 660.757812 1127.71875 660.695312 1128.589844 660.695312 C 1144.875 660.695312 1146.636719 673.3125 1146.636719 678.738281 C 1146.691406 680.234375 1146.558594 681.710938 1146.238281 683.171875 C 1145.917969 684.632812 1145.417969 686.03125 1144.742188 687.363281 C 1144.0625 688.695312 1143.226562 689.925781 1142.238281 691.042969 C 1141.246094 692.164062 1140.128906 693.140625 1138.890625 693.976562 Z M 1138.890625 693.976562 " fill-opacity="1" fill-rule="nonzero"/></g></svg>